<?xml version="1.0" encoding="UTF-8"?>
<svg id="Layer_1" xmlns="http://www.w3.org/2000/svg" version="1.1" viewBox="0 0 1000 1000">
  <!-- Generator: Adobe Illustrator 29.2.1, SVG Export Plug-In . SVG Version: 2.1.0 Build 116)  -->
  <defs>
    <style>
      .st0 {
        fill: #3c434d;
      }

      .st1 {
        stroke-dasharray: 11.99 11.99;
      }

      .st1, .st2, .st3, .st4, .st5, .st6 {
        stroke: #3c434d;
        stroke-miterlimit: 10;
      }

      .st1, .st7, .st3, .st4, .st5, .st6 {
        fill: none;
      }

      .st1, .st3, .st4, .st5, .st6 {
        stroke-width: 5px;
      }

      .st8, .st2 {
        fill: #fff;
      }

      .st2 {
        display: none;
      }

      .st9 {
        fill: #ffc14e;
      }

      .st10 {
        fill: #bebebf;
      }

      .st11 {
        fill: #03acb2;
      }

      .st12 {
        fill: #efe743;
      }

      .st3 {
        stroke-dasharray: 12.71 12.71;
      }

      .st13 {
        fill: #76cbff;
      }

      .st14 {
        fill: #abe233;
      }

      .st4 {
        stroke-dasharray: 12.32 12.32;
      }

      .st5 {
        stroke-dasharray: 11.2 11.2;
      }

      .st15 {
        fill: #e8372e;
      }
    </style>
  </defs>
  <rect class="st2" x="27" y="64" width="945" height="909" rx="32" ry="32"/>
  <g id="Layer_2">
    <path class="st0" d="M27,133.29V61.45c0-17.84,14.54-32.44,32.32-32.44h880.36c17.78,0,32.32,14.6,32.32,32.44v71.84H27Z"/>
    <ellipse class="st8" cx="87.94" cy="82.18" rx="23.38" ry="23.47"/>
    <ellipse class="st8" cx="156.56" cy="82.18" rx="23.38" ry="23.47"/>
    <ellipse class="st8" cx="225.18" cy="82.18" rx="23.38" ry="23.47"/>
  </g>
  <line class="st7" x1="25.7" y1="133.29" x2="25.7" y2="896.86"/>
  <path class="st7" d="M974.3,133.29"/>
  <g>
    <rect class="st9" x="61.83" y="190" width="172.17" height="180"/>
    <rect class="st11" x="277.83" y="406" width="172.17" height="180"/>
    <g>
      <rect class="st15" x="61.83" y="406" width="172.17" height="180"/>
      <g>
        <polyline class="st6" points="234 580 234 586 228 586"/>
        <line class="st4" x1="215.68" y1="586" x2="73.99" y2="586"/>
        <polyline class="st6" points="67.83 586 61.83 586 61.83 580"/>
        <line class="st5" x1="61.83" y1="568.8" x2="61.83" y2="417.6"/>
        <polyline class="st6" points="61.83 412 61.83 406 67.83 406"/>
        <line class="st4" x1="80.15" y1="406" x2="221.84" y2="406"/>
        <polyline class="st6" points="228 406 234 406 234 412"/>
        <line class="st5" x1="234" y1="423.2" x2="234" y2="574.4"/>
      </g>
    </g>
    <g>
      <rect class="st14" x="277.83" y="192.81" width="172.17" height="177.19"/>
      <g>
        <polyline class="st6" points="450 364 450 370 444 370"/>
        <line class="st4" x1="431.68" y1="370" x2="289.99" y2="370"/>
        <polyline class="st6" points="283.83 370 277.83 370 277.83 364"/>
        <line class="st3" x1="277.83" y1="351.29" x2="277.83" y2="205.17"/>
        <polyline class="st6" points="277.83 198.81 277.83 192.81 283.83 192.81"/>
        <line class="st4" x1="296.15" y1="192.81" x2="437.84" y2="192.81"/>
        <polyline class="st6" points="444 192.81 450 192.81 450 198.81"/>
        <line class="st3" x1="450" y1="211.52" x2="450" y2="357.65"/>
      </g>
    </g>
  </g>
  <rect class="st1" x="540" y="192.81" width="414" height="708.19" rx="8" ry="8"/>
  <g>
    <rect class="st10" x="63" y="676.62" width="396" height="12.66" rx="4.5" ry="4.5"/>
    <rect class="st10" x="63" y="714.59" width="396" height="12.66" rx="4.5" ry="4.5"/>
    <rect class="st10" x="63" y="752.57" width="292.7" height="12.66" rx="4.5" ry="4.5"/>
    <rect class="st10" x="63" y="790.55" width="396" height="12.66" rx="4.5" ry="4.5"/>
    <rect class="st10" x="63" y="828.52" width="396" height="12.66" rx="4.5" ry="4.5"/>
    <rect class="st10" x="63" y="866.5" width="327.13" height="12.66" rx="4.5" ry="4.5"/>
  </g>
  <g>
    <rect class="st10" x="576.74" y="536.68" width="121.57" height="11.14" rx="4.5" ry="4.5"/>
    <rect class="st10" x="576.74" y="570.12" width="121.57" height="11.14" rx="4.5" ry="4.5"/>
    <rect class="st10" x="576.74" y="603.55" width="121.57" height="11.14" rx="4.5" ry="4.5"/>
    <rect class="st10" x="576.74" y="636.98" width="121.57" height="11.14" rx="4.5" ry="4.5"/>
    <rect class="st10" x="576.74" y="714.99" width="121.57" height="11.14" rx="4.5" ry="4.5"/>
    <rect class="st10" x="576.74" y="748.42" width="349.52" height="11.14" rx="4.5" ry="4.5"/>
    <rect class="st10" x="576.74" y="781.86" width="349.52" height="11.14" rx="4.5" ry="4.5"/>
    <rect class="st10" x="728.71" y="536.68" width="197.56" height="11.14" rx="4.5" ry="4.5"/>
    <rect class="st10" x="728.71" y="570.12" width="197.56" height="11.14" rx="4.5" ry="4.5"/>
    <rect class="st10" x="728.71" y="603.55" width="197.56" height="11.14" rx="4.5" ry="4.5"/>
    <rect class="st10" x="728.71" y="636.98" width="197.56" height="11.14" rx="4.5" ry="4.5"/>
    <rect class="st10" x="728.71" y="714.99" width="197.56" height="11.14" rx="4.5" ry="4.5"/>
  </g>
  <g>
    <rect class="st13" x="576.74" y="226" width="349.52" height="240.78" rx="32" ry="32"/>
    <g>
      <rect class="st12" x="766.7" y="319.21" width="98.78" height="100.97" rx="12" ry="12"/>
      <g>
        <rect class="st0" x="781.89" y="311.44" width="6.84" height="15.53" rx="3.42" ry="3.42"/>
        <rect class="st0" x="802.41" y="311.44" width="6.84" height="15.53" rx="3.42" ry="3.42"/>
        <rect class="st0" x="822.92" y="311.44" width="6.84" height="15.53" rx="3.42" ry="3.42"/>
        <rect class="st0" x="843.44" y="311.44" width="6.84" height="15.53" rx="3.42" ry="3.42"/>
      </g>
      <g>
        <rect class="st0" x="861.98" y="330.64" width="6.99" height="15.2" rx="3.5" ry="3.5" transform="translate(1203.71 -527.24) rotate(90)"/>
        <rect class="st0" x="861.98" y="351.61" width="6.99" height="15.2" rx="3.5" ry="3.5" transform="translate(1224.68 -506.27) rotate(90)"/>
        <rect class="st0" x="861.98" y="372.58" width="6.99" height="15.2" rx="3.5" ry="3.5" transform="translate(1245.65 -485.3) rotate(90)"/>
        <rect class="st0" x="861.98" y="393.55" width="6.99" height="15.2" rx="3.5" ry="3.5" transform="translate(1266.62 -464.33) rotate(90)"/>
      </g>
      <g>
        <rect class="st0" x="763.2" y="393.55" width="6.99" height="15.2" rx="3.5" ry="3.5" transform="translate(365.55 1167.85) rotate(-90)"/>
        <rect class="st0" x="763.2" y="372.58" width="6.99" height="15.2" rx="3.5" ry="3.5" transform="translate(386.52 1146.87) rotate(-90)"/>
        <rect class="st0" x="763.2" y="351.61" width="6.99" height="15.2" rx="3.5" ry="3.5" transform="translate(407.49 1125.9) rotate(-90)"/>
        <rect class="st0" x="763.2" y="330.64" width="6.99" height="15.2" rx="3.5" ry="3.5" transform="translate(428.46 1104.93) rotate(-90)"/>
      </g>
      <g>
        <rect class="st0" x="781.89" y="412.41" width="6.84" height="15.53" rx="3.42" ry="3.42"/>
        <rect class="st0" x="802.41" y="412.41" width="6.84" height="15.53" rx="3.42" ry="3.42"/>
        <rect class="st0" x="822.92" y="412.41" width="6.84" height="15.53" rx="3.42" ry="3.42"/>
        <rect class="st0" x="843.44" y="412.41" width="6.84" height="15.53" rx="3.42" ry="3.42"/>
      </g>
    </g>
  </g>
</svg>