<svg viewBox="0 0 800 600" xmlns="http://www.w3.org/2000/svg">
  <!-- Browser Window -->
  <rect x="100" y="100" width="600" height="400" rx="8" ry="8" fill="#FFFFFF" stroke="#DDD" stroke-width="2" />
  
  <!-- Browser Navigation Bar -->
  <rect x="100" y="100" width="600" height="40" rx="8" ry="8" fill="#F0F0F0" />
  
  <!-- Browser Control Buttons -->
  <circle cx="125" cy="120" r="7" fill="#FF605C" />
  <circle cx="150" cy="120" r="7" fill="#FFBD44" />
  <circle cx="175" cy="120" r="7" fill="#00CA4E" />
  
  <!-- URL Bar -->
  <rect x="200" y="110" width="400" height="20" rx="4" ry="4" fill="#E5E5E5" />
  
  <!-- Browser Content Area -->
  <rect x="100" y="140" width="600" height="360" fill="#F8F8F8" />
  
  <!-- Component Grid System -->
  <line x1="100" y1="220" x2="700" y2="220" stroke="#E0E0E0" stroke-width="1" stroke-dasharray="4,4" />
  <line x1="100" y1="300" x2="700" y2="300" stroke="#E0E0E0" stroke-width="1" stroke-dasharray="4,4" />
  <line x1="100" y1="380" x2="700" y2="380" stroke="#E0E0E0" stroke-width="1" stroke-dasharray="4,4" />
  <line x1="250" y1="140" x2="250" y2="500" stroke="#E0E0E0" stroke-width="1" stroke-dasharray="4,4" />
  <line x1="400" y1="140" x2="400" y2="500" stroke="#E0E0E0" stroke-width="1" stroke-dasharray="4,4" />
  <line x1="550" y1="140" x2="550" y2="500" stroke="#E0E0E0" stroke-width="1" stroke-dasharray="4,4" />
  
  <!-- Header Component -->
  <rect x="120" y="160" width="560" height="40" rx="4" ry="4" fill="#F0F0F0" />
  <rect x="140" y="170" width="100" height="20" rx="4" ry="4" fill="#7B61FF" />
  <circle cx="630" cy="180" r="10" fill="#FF6B8B" />
  <circle cx="660" cy="180" r="10" fill="#4EA8DE" />
  
  <!-- Sidebar Component -->
  <rect x="120" y="220" width="110" height="260" rx="4" ry="4" fill="#F5F5F5" />
  <rect x="135" y="240" width="80" height="10" rx="2" ry="2" fill="#CCCCCC" />
  <rect x="135" y="260" width="80" height="10" rx="2" ry="2" fill="#CCCCCC" />
  <rect x="135" y="280" width="80" height="10" rx="2" ry="2" fill="#7B61FF" />
  <rect x="135" y="300" width="80" height="10" rx="2" ry="2" fill="#CCCCCC" />
  <rect x="135" y="320" width="80" height="10" rx="2" ry="2" fill="#CCCCCC" />
  <rect x="135" y="340" width="80" height="10" rx="2" ry="2" fill="#CCCCCC" />
  
  <!-- Card Component 1 -->
  <rect x="270" y="240" width="110" height="140" rx="6" ry="6" fill="#FFFFFF" stroke="#E0E0E0" stroke-width="1" />
  <rect x="270" y="240" width="110" height="60" rx="6" ry="6" fill="#F0F0F0" />
  <rect x="280" y="310" width="90" height="10" rx="2" ry="2" fill="#AAAAAA" />
  <rect x="280" y="330" width="60" height="8" rx="2" ry="2" fill="#CCCCCC" />
  <rect x="280" y="350" width="40" height="20" rx="4" ry="4" fill="#7B61FF" />
  
  <!-- Card Component 2 -->
  <rect x="420" y="240" width="110" height="140" rx="6" ry="6" fill="#FFFFFF" stroke="#E0E0E0" stroke-width="1" />
  <rect x="420" y="240" width="110" height="60" rx="6" ry="6" fill="#F0F0F0" />
  <rect x="430" y="310" width="90" height="10" rx="2" ry="2" fill="#AAAAAA" />
  <rect x="430" y="330" width="60" height="8" rx="2" ry="2" fill="#CCCCCC" />
  <rect x="430" y="350" width="40" height="20" rx="4" ry="4" fill="#FF6B8B" />
  
  <!-- Chart Component -->
  <rect x="570" y="240" width="110" height="140" rx="6" ry="6" fill="#FFFFFF" stroke="#E0E0E0" stroke-width="1" />
  <polyline points="580,350 590,330 600,340 610,300 620,320 630,290 640,310 650,280 660,295" stroke="#4EA8DE" stroke-width="2" fill="none" />
  <circle cx="580" cy="350" r="3" fill="#4EA8DE" />
  <circle cx="590" cy="330" r="3" fill="#4EA8DE" />
  <circle cx="600" cy="340" r="3" fill="#4EA8DE" />
  <circle cx="610" cy="300" r="3" fill="#4EA8DE" />
  <circle cx="620" cy="320" r="3" fill="#4EA8DE" />
  <circle cx="630" cy="290" r="3" fill="#4EA8DE" />
  <circle cx="640" cy="310" r="3" fill="#4EA8DE" />
  <circle cx="650" cy="280" r="3" fill="#4EA8DE" />
  <circle cx="660" cy="295" r="3" fill="#4EA8DE" />
  
  <!-- Form Component -->
  <rect x="270" y="400" width="260" height="80" rx="6" ry="6" fill="#FFFFFF" stroke="#E0E0E0" stroke-width="1" />
  <rect x="280" y="410" width="150" height="20" rx="4" ry="4" fill="#F0F0F0" />
  <rect x="280" y="440" width="150" height="20" rx="4" ry="4" fill="#F0F0F0" />
  <rect x="445" y="440" width="75" height="20" rx="4" ry="4" fill="#FF6B8B" />
  
  <!-- Floating Component - Notification -->
  <rect x="570" y="400" width="110" height="80" rx="6" ry="6" fill="#7B61FF" stroke="#8975FF" stroke-width="1" />
  <circle cx="590" cy="420" r="10" fill="#FFFFFF" />
  <rect x="610" y="415" width="50" height="10" rx="2" ry="2" fill="#FFFFFF" />
  <rect x="590" y="440" width="70" height="8" rx="2" ry="2" fill="#FFFFFF" />
  <rect x="590" y="455" width="50" height="8" rx="2" ry="2" fill="#FFFFFF" />
  
  <!-- Connecting Lines Between Components -->
  <line x1="175" y1="350" x2="270" y2="310" stroke="#7B61FF" stroke-width="2" stroke-opacity="0.6" />
  <line x1="380" y1="310" x2="420" y2="310" stroke="#FF6B8B" stroke-width="2" stroke-opacity="0.6" />
  <line x1="530" y1="310" x2="570" y2="310" stroke="#4EA8DE" stroke-width="2" stroke-opacity="0.6" />
  <line x1="400" y1="380" x2="400" y2="400" stroke="#FF6B8B" stroke-width="2" stroke-opacity="0.6" />
  <line x1="530" y1="440" x2="570" y2="440" stroke="#FF6B8B" stroke-width="2" stroke-opacity="0.6" />
  
  <!-- Glowing Dots -->
  <circle cx="175" cy="350" r="4" fill="#7B61FF">
    <animate attributeName="opacity" values="0.5;1;0.5" dur="2s" repeatCount="indefinite" />
  </circle>
  <circle cx="270" cy="310" r="4" fill="#7B61FF">
    <animate attributeName="opacity" values="0.5;1;0.5" dur="2s" repeatCount="indefinite" />
  </circle>
  <circle cx="380" cy="310" r="4" fill="#FF6B8B">
    <animate attributeName="opacity" values="0.5;1;0.5" dur="2s" repeatCount="indefinite" />  
  </circle>
  <circle cx="420" cy="310" r="4" fill="#FF6B8B">
    <animate attributeName="opacity" values="0.5;1;0.5" dur="2s" repeatCount="indefinite" />
  </circle>
  <circle cx="530" cy="310" r="4" fill="#4EA8DE">
    <animate attributeName="opacity" values="0.5;1;0.5" dur="2s" repeatCount="indefinite" />
  </circle>
  <circle cx="570" cy="310" r="4" fill="#4EA8DE">
    <animate attributeName="opacity" values="0.5;1;0.5" dur="2s" repeatCount="indefinite" />
  </circle>
  <circle cx="400" cy="380" r="4" fill="#FF6B8B">
    <animate attributeName="opacity" values="0.5;1;0.5" dur="2s" repeatCount="indefinite" />
  </circle>
  <circle cx="400" cy="400" r="4" fill="#FF6B8B">
    <animate attributeName="opacity" values="0.5;1;0.5" dur="2s" repeatCount="indefinite" />
  </circle>
  <circle cx="530" cy="440" r="4" fill="#FF6B8B">
    <animate attributeName="opacity" values="0.5;1;0.5" dur="2s" repeatCount="indefinite" />
  </circle>
  <circle cx="570" cy="440" r="4" fill="#FF6B8B">
    <animate attributeName="opacity" values="0.5;1;0.5" dur="2s" repeatCount="indefinite" />
  </circle>
</svg>